<?xml version="1.0" encoding="utf-8"?>
<!-- Generator: Adobe Illustrator 26.4.1, SVG Export Plug-In . SVG Version: 6.00 Build 0)  -->
<svg version="1.1" xmlns="http://www.w3.org/2000/svg" xmlns:xlink="http://www.w3.org/1999/xlink" x="0px" y="0px"
	 viewBox="0 0 168.83 468.97" style="enable-background:new 0 0 168.83 468.97;" xml:space="preserve">
<style type="text/css">
	.st0{fill:#F6851F;}
	.st1{fill:#149547;}
	.st2{fill:none;stroke:#000000;stroke-width:7;stroke-miterlimit:10;}
	.st3{stroke:#000000;stroke-width:5;stroke-miterlimit:10;}
	.st4{fill:#FFFFFF;stroke:#FFFFFF;stroke-miterlimit:10;}
	.st5{fill:none;stroke:#000000;stroke-width:6;stroke-miterlimit:10;}
</style>
<g id="carrot-fill">
	<path id="carrot-fill_00000023970494598349535900000000434949509879080356_" class="st0" d="M111.86,161.38l9.81,3.19
		c6.98,2.27,13.42,6.08,18.48,11.4c3.88,4.07,6.75,8.72,7.98,14.46l0,0c1.65,7.64,2.33,15.45,2.02,23.25l-2.85,72.66l-9,72.5
		c-0.99,7.93-2.41,15.81-4.26,23.59l-13.02,54.68c-0.74,3.11-2.53,5.88-5.07,7.83h0c-6.47,4.98-15.56,4.68-21.68-0.71h0
		c-3.36-2.96-5.88-6.75-7.29-11l-14.35-43.16c-3.55-10.67-6.42-21.54-8.62-32.57L49.1,282.48l-9.58-73.28
		c-0.96-7.35-0.43-14.82,1.57-21.95l0,0c2.95-10.53,10.77-19.01,21.03-22.8l0,0C79.6,158.01,93.93,156.21,111.86,161.38z"/>
</g>
<g id="head-fill_00000023272210436208860880000006260335714471481223_">
	<path id="head-fill" class="st1" d="M101.02,153.36l3.56-6.95c0.35-0.68,0.82-1.29,1.4-1.8l11.49-10.14
		c1.1-0.97,1.82-2.31,2.02-3.76l1.26-9.21c0.06-0.44,0.17-0.88,0.32-1.3l4.36-11.78c0.59-1.59,0.49-3.35-0.27-4.86l-1.02-2.03
		c-1.02-2.04-0.82-4.48,0.52-6.33l4.73-6.54c1.49-2.06,1.55-4.82,0.16-6.95l-2-3.05c-0.94-1.43-2.44-2.41-4.13-2.68l-5.42-0.88
		c-3.09-0.5-5.3-3.26-5.13-6.39l0.91-15.78c0.1-1.73-0.54-3.42-1.76-4.65L95.25,31.31c-2.55-2.58-6.78-2.39-9.08,0.42l-4.2,5.11
		c-1.08,1.31-2.66,2.12-4.35,2.22l-8.17,0.5c-1.71,0.1-3.39-0.51-4.62-1.7l-10.49-10.1c-1.54-1.48-3.73-2.05-5.79-1.51l-15.08,3.94
		c-3.25,0.85-5.21,4.17-4.39,7.42l3.37,13.33c0.42,1.64,1.49,3.04,2.98,3.86l14.18,7.83c4.27,2.36,4.2,8.52-0.12,10.78l0,0
		c-1.32,0.69-2.34,1.83-2.87,3.22l-1.65,4.26c-0.53,1.38-0.55,2.91-0.04,4.3l3.57,9.82c0.04,0.1,0.08,0.2,0.12,0.3l4.49,10.56
		c0.62,1.45,0.65,3.07,0.1,4.55l-2.29,6.1c-0.63,1.68-0.49,3.55,0.38,5.11l6.55,11.82c0.42,0.76,1,1.42,1.7,1.94l14.05,10.48
		c0.77,0.57,1.39,1.31,1.82,2.17l2.62,5.25c1.04,2.07,3.16,3.38,5.48,3.38h12.06C97.87,156.69,99.97,155.4,101.02,153.36z"/>
</g>
<g id="head-outline_00000042698337514150604820000009241942199803621270_">
	<path id="head-outline" class="st2" d="M101.02,153.36l3.56-6.95c0.35-0.68,0.82-1.29,1.4-1.8l11.49-10.14
		c1.1-0.97,1.82-2.31,2.02-3.76l1.26-9.21c0.06-0.44,0.17-0.88,0.32-1.3l4.36-11.78c0.59-1.59,0.49-3.35-0.27-4.86l-1.02-2.03
		c-1.02-2.04-0.82-4.48,0.52-6.33l4.73-6.54c1.49-2.06,1.55-4.82,0.16-6.95l-2-3.05c-0.94-1.43-2.44-2.41-4.13-2.68l-5.42-0.88
		c-3.09-0.5-5.3-3.26-5.13-6.39l0.91-15.78c0.1-1.73-0.54-3.42-1.76-4.65L95.25,31.31c-2.55-2.58-6.78-2.39-9.08,0.42l-4.2,5.11
		c-1.08,1.31-2.66,2.12-4.35,2.22l-8.17,0.5c-1.71,0.1-3.39-0.51-4.62-1.7l-10.49-10.1c-1.54-1.48-3.73-2.05-5.79-1.51l-15.08,3.94
		c-3.25,0.85-5.21,4.17-4.39,7.42l3.37,13.33c0.42,1.64,1.49,3.04,2.98,3.86l14.18,7.83c4.27,2.36,4.2,8.52-0.12,10.78l0,0
		c-1.32,0.69-2.34,1.83-2.87,3.22l-1.65,4.26c-0.53,1.38-0.55,2.91-0.04,4.3l3.57,9.82c0.04,0.1,0.08,0.2,0.12,0.3l4.49,10.56
		c0.62,1.45,0.65,3.07,0.1,4.55l-2.29,6.1c-0.63,1.68-0.49,3.55,0.38,5.11l6.55,11.82c0.42,0.76,1,1.42,1.7,1.94l14.05,10.48
		c0.77,0.57,1.39,1.31,1.82,2.17l2.62,5.25c1.04,2.07,3.16,3.38,5.48,3.38h12.06C97.87,156.69,99.97,155.4,101.02,153.36z"/>
</g>
<g id="carrot-outline">
	<path id="carrot-outline_00000132788345981943402320000009333442060085815982_" class="st2" d="M111.86,161.38l9.81,3.19
		c6.98,2.27,13.42,6.08,18.48,11.4c3.88,4.07,6.75,8.72,7.98,14.46l0,0c1.65,7.64,2.33,15.45,2.02,23.25l-2.85,72.66l-9,72.5
		c-0.99,7.93-2.41,15.81-4.26,23.59l-13.02,54.68c-0.74,3.11-2.53,5.88-5.07,7.83h0c-6.47,4.98-15.56,4.68-21.68-0.71h0
		c-3.36-2.96-5.88-6.75-7.29-11l-14.35-43.16c-3.55-10.67-6.42-21.54-8.62-32.57L49.1,282.48l-9.58-73.28
		c-0.96-7.35-0.43-14.82,1.57-21.95l0,0c2.95-10.53,10.77-19.01,21.03-22.8l0,0C79.6,158.01,93.93,156.21,111.86,161.38z"/>
</g>
<g id="eyes">
	<circle id="eye2" class="st3" cx="74.46" cy="219.5" r="15.19"/>
	<circle id="eye1" class="st3" cx="121.93" cy="216.41" r="15.19"/>
	<ellipse id="eye-white1" class="st4" cx="83.06" cy="216.82" rx="4.99" ry="6.28"/>
	<ellipse id="eye-white2" class="st4" cx="113.08" cy="213.21" rx="4.99" ry="6.28"/>
	<circle id="eye-twinkles2" class="st4" cx="74.23" cy="228.34" r="1.55"/>
	<circle id="eye-twinkle1" class="st4" cx="122.28" cy="224.1" r="1.55"/>
</g>
<g id="smile">
	<path id="smile_00000117678898418975652500000004813900366490336650_" class="st5" d="M81.79,249.25l3.64,11.09
		c6.51,19.82,28.15,17.37,32.06-3.63l2.37-12.72"/>
</g>
</svg>
