<?xml version="1.0" encoding="utf-8"?>
<!-- Generator: Adobe Illustrator 26.4.1, SVG Export Plug-In . SVG Version: 6.00 Build 0)  -->
<svg version="1.1" id="Layer_1" xmlns="http://www.w3.org/2000/svg" xmlns:xlink="http://www.w3.org/1999/xlink" x="0px" y="0px"
	 viewBox="0 0 411.6 405" style="enable-background:new 0 0 411.6 405;" xml:space="preserve">
<style type="text/css">
	.st0{fill:#FFFFFF;}
</style>
<path class="st0" d="M207.4,13.4C102.7,13.4,17,99,17,203.8s85.7,190.4,190.4,190.4s190.4-85.7,190.4-190.4S312.2,13.4,207.4,13.4
	L207.4,13.4z M207.4,371.8c-92.4,0-168-75.6-168-168s75.6-168,168-168s168,75.6,168,168S299.8,371.8,207.4,371.8z"/>
<path class="st0" d="M297,209.4c-6.2,0-11.2,5-11.2,11.2c0,43.1-35.3,78.4-78.4,78.4S129,263.7,129,220.6c0-6.2-5-11.2-11.2-11.2
	s-11.2,5-11.2,11.2c0,55.4,45.4,100.8,100.8,100.8S308.3,276,308.3,220.6C308.2,214.4,303.2,209.4,297,209.4L297,209.4z"/>
<path class="st0" d="M179.4,159c0,15.5-12.5,28-28,28s-28-12.5-28-28s12.5-28,28-28S179.4,143.5,179.4,159"/>
<path class="st0" d="M291.4,159c0,15.5-12.5,28-28,28s-28-12.5-28-28s12.5-28,28-28S291.4,143.5,291.4,159"/>
</svg>
