<?xml version="1.0" encoding="utf-8"?>
<!-- Generator: Adobe Illustrator 26.4.1, SVG Export Plug-In . SVG Version: 6.00 Build 0)  -->
<svg version="1.1" id="Layer_1" xmlns="http://www.w3.org/2000/svg" xmlns:xlink="http://www.w3.org/1999/xlink" x="0px" y="0px"
	 viewBox="0 0 64 64" style="enable-background:new 0 0 64 64;" xml:space="preserve">
<path d="M32,10.7c11.8,0,21.3,9.6,21.3,21.3c0,9.5-6.2,17.5-14.7,20.3c0,0,0,0,0,0s-1.4-0.7-1.4-1.9c0-1.3,0-4.4,0-5.6
	c0-1.9-1.2-3.3-1.2-3.3s9.7,0.1,9.7-10.2c0-4-2.1-6.1-2.1-6.1s1.1-4.3-0.4-6.1c-1.6-0.2-4.6,1.6-5.9,2.4c0,0-2-0.8-5.3-0.8
	c-3.3,0-5.3,0.8-5.3,0.8c-1.3-0.8-4.2-2.6-5.9-2.4c-1.5,1.8-0.4,6.1-0.4,6.1s-2.1,2.1-2.1,6.1c0,10.3,9.7,10.2,9.7,10.2
	s-1,1.1-1.2,2.7c-0.7,0.2-1.7,0.5-2.5,0.5c-2.1,0-3.7-2-4.3-3c-0.6-0.9-1.8-1.7-2.9-1.7c-0.7,0-1.1,0.4-1.1,0.8c0,0.4,1,0.7,1.7,1.5
	c1.4,1.6,1.4,5.3,6.4,5.3c0.5,0,1.7-0.1,2.5-0.2c0,1.1,0,2.4,0,3.1c0,1.2-1.4,1.9-1.4,1.9s0,0,0,0C16.8,49.5,10.7,41.5,10.7,32
	C10.7,20.2,20.2,10.7,32,10.7z"/>
</svg>
