<?xml version="1.0" encoding="utf-8"?>
<!-- Generator: Adobe Illustrator 27.0.0, SVG Export Plug-In . SVG Version: 6.00 Build 0)  -->
<svg version="1.1" id="Layer_1" xmlns="http://www.w3.org/2000/svg" xmlns:xlink="http://www.w3.org/1999/xlink" x="0px" y="0px"
	 viewBox="0 0 700 700" style="enable-background:new 0 0 700 700;" xml:space="preserve">
<style type="text/css">
	.st0{fill:#FF5851;}
</style>
<path class="st0" d="M349.9,0C157.4,0-0.2,157.5-0.2,350s157.5,350,350.1,350S700,542.5,700,350S542.5,0,349.9,0L349.9,0z
	 M349.9,658.8C180,658.8,41,519.8,41,350S180,41.2,349.9,41.2s308.9,139,308.9,308.8S519.8,658.8,349.9,658.8z"/>
<path class="st0" d="M514.7,360.3c-11.3,0-20.6,9.3-20.6,20.6c0,79.3-64.9,144.1-144.2,144.1s-144.2-64.9-144.2-144.1
	c0-11.3-9.3-20.6-20.6-20.6s-20.6,9.3-20.6,20.6c0,101.9,83.4,185.3,185.3,185.3s185.3-83.4,185.3-185.3
	C535.3,369.6,526,360.3,514.7,360.3L514.7,360.3z"/>
<path class="st0" d="M298.4,267.6c0,28.4-23,51.5-51.5,51.5s-51.5-23-51.5-51.5s23-51.5,51.5-51.5S298.4,239.2,298.4,267.6"/>
<path class="st0" d="M504.4,267.6c0,28.4-23,51.5-51.5,51.5c-28.4,0-51.5-23-51.5-51.5s23-51.5,51.5-51.5
	C481.3,216.2,504.4,239.2,504.4,267.6"/>
</svg>
